# AST/ASF file generated using VICON BodyLanguage
# -----------------------------------------------
:version 1.10
:name VICON
:units
  mass 1.0
  length 0.45
  angle deg
:documentation
   .ast/.asf automatically generated from VICON data using
   VICON BodyBuilder and BodyLanguage model FoxedUp or BRILLIANT.MOD
:root
   order TX TY TZ RX RY RZ
   axis XYZ
   position 0 0 0  
   orientation 0 0 0 
:bonedata
  begin
     id 1 
     name lhipjoint
     direction 0.650112 -0.723553 0.232005 
     length 2.45805 
     axis 0 0 0  XYZ
  end
  begin
     id 2 
     name lfemur
     direction 0.34202 -0.939693 0  
     length 7.00073  
     axis 0 0 20  XYZ
    dof rx ry rz
    limits (-160.0 20.0)
           (-70.0 70.0)
           (-60.0 70.0)
  end
  begin
     id 3 
     name ltibia
     direction 0.34202 -0.939693 0   
     length 7.8748   
     axis 0 0 20   XYZ
    dof rx
    limits (-10.0 170.0)
  end
  begin
     id 4 
     name lfoot
     direction 0.0542825 -0.14914 0.987325   
     length 1.75978   
     axis -90 7.62852e-016 20   XYZ
    dof rx rz
    limits (-45.0 90.0)
           (-70.0 20.0)
  end
  begin
     id 5 
     name ltoes
     direction 1.53509e-011 -4.21906e-011 1   
     length 0.893912   
     axis -90 7.62852e-016 20   XYZ
    dof rx
    limits (-90.0 20.0)
  end
  begin
     id 6 
     name rhipjoint
     direction -0.637897 -0.733345 0.235145   
     length 2.42522  
     axis 0 0 0  XYZ 
  end
  begin
     id 7 
     name rfemur
     direction -0.34202 -0.939693 0   
     length 7.02549   
     axis 0 0 -20   XYZ
    dof rx ry rz
    limits (-160.0 20.0)
           (-70.0 70.0)
           (-70.0 60.0)
  end
  begin
     id 8 
     name rtibia
     direction -0.34202 -0.939693 0   
     length 7.71512   
     axis 0 0 -20   XYZ
    dof rx
    limits (-10.0 170.0)
 end
 begin
     id 9 
     name rfoot
     direction -0.0822618 -0.226012 0.970645   
     length 1.90014  
     axis -90 -7.62852e-016 -20   XYZ
    dof rx rz
    limits (-45.0 90.0)
           (-20.0 70.0)
  end
  begin
     id 10 
     name rtoes
     direction -1.53542e-011 -4.21872e-011 1   
     length 0.957341   
     axis -90 -7.62852e-016 -20   XYZ
    dof rx
    limits (-90.0 20.0)
  end
  begin
     id 11 
     name lowerback
     direction -0.0022947 0.999774 -0.0211557   
     length 1.89909   
     axis 0 0 0   XYZ
    dof rx ry rz
    limits (-20.0 45.0)
           (-30.0 30.0)
           (-30.0 30.0)
  end
  begin
     id 12 
     name upperback
     direction 0.0107737 0.998635 0.0511027   
     length 1.8853   
     axis 0 0 0   XYZ
    dof rx ry rz
    limits (-20.0 45.0)
           (-30.0 30.0)
           (-30.0 30.0)
  end
  begin
     id 13 
     name thorax
     direction 0.011824 0.998136 0.0598754   
     length 1.88911   
     axis 0 0 0   XYZ
    dof rx ry rz
    limits (-20.0 45.0)
           (-30.0 30.0)
           (-30.0 30.0)
  end
  begin
     id 14 
     name lowerneck
     direction -0.0685355 0.990319 0.120714   
     length 1.91222   
     axis 0 0 0   XYZ
    dof rx ry rz
    limits (-20.0 45.0)
           (-30.0 30.0)
           (-30.0 30.0)
  end
  begin
     id 15 
     name upperneck
     direction 0.0886204 0.955665 -0.280805   
     length 1.92526   
     axis 0 0 0   XYZ
    dof rx ry rz
    limits (-20.0 45.0)
           (-30.0 30.0)
           (-30.0 30.0)
  end
  begin
     id 16
     name head
     direction 0.0233423 0.993502 -0.111393  
     length 1.96056  
     axis 0 0 0   XYZ
    dof rx ry rz
    limits (-20.0 45.0)
           (-30.0 30.0)
           (-30.0 30.0)
  end
  begin
     id 17 
     name lclavicle
     direction 0.941873 0.32922 0.0670041  
     length 3.31705  
     axis 0 0 0   XYZ
    dof ry rz
    limits (-20.0 10.0)
           (0.0 20.0)
  end
  begin
     id 18 
     name lhumerus
     direction 1 -4.4898e-011 3.38707e-028   
     length 5.29277   
     axis 180 -30 -90   XYZ
    dof rx ry rz
    limits (-60.0 90.0)
           (-90.0 90.0)
           (-90.0 90.0)
  end
  begin
     id 19
     name lradius
     direction 1 -4.48952e-011 1.63213e-028   
     length 2.85226   
     axis 180 -30 -90   XYZ
    dof rx
    limits (-10.0 170.0)
  end
  begin
     id 20
     name lwrist
     direction 1 -4.49001e-011 1.27856e-027   
     length 1.42613   
     axis -1.61767e-015 90 90   XYZ
    dof ry
    limits (-180.0 0.0)
 end
  begin
     id 21 
     name lhand
     direction 1 -4.48976e-011 2.55931e-027   
     length 0.602097   
     axis -1.63363e-015 90 90   XYZ
    dof rx rz
    limits (-90.0 90.0)
           (-45.0 45.0)
  end
  begin
     id 22 
     name lfingers
     direction 1 -4.48986e-011 5.11684e-027   
     length 0.485426   
     axis -3.26723e-015 90 90   XYZ
    dof rx
    limits (0.0 90.0)
  end
  begin
     id 23
     name lthumb
     direction 0.707107 -6.34915e-011 0.707107   
     length 0.696978   
     axis -90 45 -2.25915e-014   XYZ
    dof rx rz
    limits (-45.0 45.0)
           (-45.0 45.0)
  end
  begin
     id 24 
     name rclavicle
     direction -0.939974 0.327078 0.0973096   
     length 3.10337  
     axis 0 0 0   XYZ 
    dof ry rz
    limits (-10.0 20.0)
           (-20.0 0.0)
  end
  begin
     id 25 
     name rhumerus
     direction -1 -4.48975e-011 1.83745e-027  
     length 5.13304   
     axis 180 30 90   XYZ
    dof rx ry rz
    limits (-90.0 60.0)
           (-90.0 90.0)
           (-90.0 90.0)
  end
  begin
     id 26 
     name rradius
     direction -1 -4.48977e-011 7.1775e-029   
     length 2.74305   
     axis 180 30 90   XYZ
    dof rx
    limits (-10.0 170.0)
  end
  begin
     id 27 
     name rwrist
     direction -1 -4.48977e-011 1.27963e-027   
     length 1.37152   
     axis -1.61767e-015 -90 -90   XYZ
    dof ry
    limits (-180.0 0.0)
  end
  begin
     id 28
     name rhand
     direction -1 -4.4888e-011 2.56782e-027   
     length 0.767976   
     axis -1.63363e-015 -90 -90   XYZ
    dof rx rz
    limits (-90.0 90.0)
           (-45.0 45.0)
  end
  begin
     id 29
     name rfingers
     direction -1 -4.48947e-011 5.12384e-027   
     length 0.619162   
     axis -3.26723e-015 -90 -90   XYZ
    dof rx
    limits (0.0 90.0)
  end
  begin
     id 30
     name rthumb
     direction -0.707107 -6.34857e-011 0.707107   
     length 0.888997   
     axis -90 -45 2.25915e-014   XYZ
    dof rx rz
    limits (-45.0 45.0)
           (-45.0 45.0)
  end
:hierarchy
  begin
    root lhipjoint rhipjoint lowerback
    lhipjoint lfemur
    lfemur ltibia
    ltibia lfoot
    lfoot ltoes
    rhipjoint rfemur
    rfemur rtibia
    rtibia rfoot
    rfoot rtoes
    lowerback upperback
    upperback thorax
    thorax lowerneck lclavicle rclavicle
    lowerneck upperneck
    upperneck head
    lclavicle lhumerus
    lhumerus lradius
    lradius lwrist
    lwrist lhand lthumb
    lhand lfingers
    rclavicle rhumerus
    rhumerus rradius
    rradius rwrist
    rwrist rhand rthumb
    rhand rfingers
  end

#!OML:ASF F:\VICON\USERDATA\INSTALL\rory3\rory3.ASF
:FULLY-SPECIFIED
:DEGREES
1
root 0.24189 16.4737 -1.64109 16.0742 2.98752 -4.23756
lowerback 18.5276 0.711268 -1.55641
upperback 5.45733 0.591853 -0.994568
thorax -4.5081 0.297117 -0.301841
lowerneck -3.43561 -9.07179 -19.7938
upperneck -11.9285 -10.3146 30.1866
head 0.300036 -5.35487 12.8946
rclavicle 3.97569e-015 1.82882e-014
rhumerus 23.1035 10.5016 -74.3313
rradius 97.3083
rwrist 24.1674
rhand 33.5122 10.9192
rfingers 7.12502
rthumb 56.8338 -5.80439
lclavicle 3.97569e-015 1.82882e-014
lhumerus 21.4013 -12.7396 76.6511
lradius 97.3608
lwrist -10.132
lhand 19.9366 36.149
lfingers 7.12502
lthumb 44.476 59.852
rfemur -39.9084 2.75175 21.1476
rtibia 44.883
rfoot -21.1261 -6.27164
rtoes -20.1911
lfemur -43.9784 -3.84868 -11.6172
ltibia 49.8354
lfoot -20.6238 0.202918
ltoes -18.9624
2
root 0.258453 16.4031 -1.68054 15.885 3.08827 -3.97657
lowerback 18.8615 0.739128 -1.58564
upperback 5.57039 0.632078 -0.73972
thorax -4.56608 0.316032 -0.0264139
lowerneck -3.23463 -8.96643 -19.7457
upperneck -11.8644 -10.2035 30.107
head 0.241847 -5.31042 12.8776
rclavicle 4.77083e-015 9.54166e-015
rhumerus 24.1543 9.98924 -74.2882
rradius 97.7559
rwrist 24.3269
rhand 33.0594 10.5062
rfingers 7.12502
rthumb 56.4345 -6.54139
lclavicle 4.77083e-015 9.54166e-015
lhumerus 23.0221 -12.2242 75.9861
lradius 97.801
lwrist -10.1519
lhand 20.1569 36.3651
lfingers 7.12502
lthumb 44.6812 59.9891
rfemur -40.591 2.37709 20.893
rtibia 46.3146
rfoot -21.8034 -6.38273
rtoes -20.5625
lfemur -44.5338 -3.71318 -12.0445
ltibia 50.862
lfoot -20.9007 -0.209962
ltoes -18.5241
3
root 0.273709 16.3379 -1.71791 15.7949 3.10731 -3.60403
lowerback 18.9815 0.721782 -1.68318
upperback 5.75586 0.60078 -0.593522
thorax -4.43258 0.299183 0.191386
lowerneck -3.15027 -8.83648 -19.6827
upperneck -11.9045 -10.0185 30.1203
head 0.165455 -5.22814 12.9006
rclavicle 9.54166e-015 -1.59028e-015
rhumerus 25.3744 9.56226 -74.4095
rradius 98.1973
rwrist 24.6627
rhand 32.4562 10.0284
rfingers 7.12502
rthumb 55.9005 -7.43818
lclavicle 9.54166e-015 -1.59028e-015
lhumerus 24.7 -11.5313 75.1132
lradius 98.2122
lwrist -10.0507
lhand 20.4026 36.6406
lfingers 7.12502
lthumb 44.9099 60.1756
rfemur -41.3492 2.07621 20.4893
rtibia 47.7079
rfoot -22.3912 -6.61141
rtoes -21.4418
lfemur -45.0903 -3.52139 -12.6153
ltibia 51.7122
lfoot -21.1437 -0.530329
ltoes -18.7407
4
root 0.288134 16.2744 -1.75315 15.8733 3.09001 -3.00598
lowerback 18.9477 0.737203 -1.94031
upperback 5.90258 0.580856 -0.536091
thorax -4.26012 0.287756 0.40403
lowerneck -3.0157 -8.75692 -19.5444
upperneck -12.0633 -9.89322 30.0827
head 0.0542301 -5.18453 12.8879
rclavicle -1.66979e-014 -1.19271e-015
rhumerus 26.5597 9.05822 -74.6906
rradius 98.6165
rwrist 25.1475
rhand 31.8495 9.75999
rfingers 7.12502
rthumb 55.3616 -8.11389
lclavicle -1.66979e-014 -1.19271e-015
lhumerus 26.3803 -10.9199 74.3672
lradius 98.7247
lwrist -9.89577
lhand 20.8058 37.1413
lfingers 7.12502
lthumb 45.285 60.5278
rfemur -42.255 1.75265 19.8207
rtibia 49.0164
rfoot -22.9121 -6.7362
rtoes -21.5266
lfemur -45.7644 -3.39023 -13.4167
ltibia 52.4778
lfoot -21.3132 -0.798713
ltoes -18.8865
5
root 0.304004 16.2221 -1.7838 15.9577 3.08846 -2.43312
lowerback 18.9225 0.865632 -2.33861
upperback 6.0183 0.69077 -0.312522
thorax -4.13156 0.338273 0.844142
lowerneck -2.731 -8.73146 -19.5878
upperneck -12.3558 -9.84353 30.0475
head -0.088994 -5.18604 12.9146
rclavicle -6.36111e-015 -1.94809e-014
rhumerus 27.5405 8.4424 -74.8925
rradius 99.109
rwrist 25.5566
rhand 31.2428 9.68726
rfingers 7.12502
rthumb 54.8207 -8.58031
lclavicle -6.36111e-015 -1.94809e-014
lhumerus 27.9563 -10.4198 74.0755
lradius 99.3336
lwrist -9.89202
lhand 21.2659 37.8176
lfingers 7.12502
lthumb 45.7125 61.0309
rfemur -43.0544 1.39504 19.1828
rtibia 50.1618
rfoot -23.3299 -6.69317
rtoes -21.13
lfemur -46.3279 -3.34777 -14.1677
ltibia 53.0853
lfoot -21.367 -1.0921
ltoes -18.4686
6
root 0.319292 16.1818 -1.81152 15.9154 3.00834 -1.95829
lowerback 19.0649 1.06698 -2.91173
upperback 6.14623 0.869353 0.118644
thorax -4.08685 0.420188 1.58771
lowerneck -2.43181 -8.70477 -19.9329
upperneck -12.7345 -9.78304 30.0092
head -0.243197 -5.17248 13.0046
rclavicle 1.70955e-014 2.78299e-015
rhumerus 28.4203 7.99155 -74.8771
rradius 99.5939
rwrist 25.7578
rhand 30.7211 9.58513
rfingers 7.12502
rthumb 54.3541 -9.01064
lclavicle 1.70955e-014 2.78299e-015
lhumerus 29.2411 -9.84908 74.0523
lradius 99.7092
lwrist -9.81262
lhand 21.6756 38.2444
lfingers 7.12502
lthumb 46.0927 61.3002
rfemur -43.6028 1.17342 18.6093
rtibia 51.1066
rfoot -23.696 -6.51351
rtoes -20.1214
lfemur -46.5991 -3.21881 -14.8375
ltibia 53.5235
lfoot -21.4512 -1.41116
ltoes -17.7319
7
root 0.333419 16.1535 -1.83754 15.7167 3.00086 -1.5046
lowerback 19.3813 1.17299 -3.34215
upperback 6.32286 0.939336 0.468536
thorax -4.07534 0.448871 2.18767
lowerneck -2.3282 -8.66555 -20.2618
upperneck -12.9324 -9.70723 30.0256
head -0.313716 -5.13411 13.0977
rclavicle 3.77691e-015 -1.59028e-015
rhumerus 29.1198 7.6624 -75.2138
rradius 100.08
rwrist 25.7889
rhand 30.5239 9.43643
rfingers 7.12502
rthumb 54.1773 -9.28097
lclavicle 3.77691e-015 -1.59028e-015
lhumerus 30.3066 -9.36316 73.7539
lradius 99.8099
lwrist -9.39976
lhand 21.8961 38.3748
lfingers 7.12502
lthumb 46.2971 61.3445
rfemur -43.8227 0.971497 18.0668
rtibia 51.7797
rfoot -24.0185 -6.40708
rtoes -19.0494
lfemur -46.6221 -3.14901 -15.4696
ltibia 53.7987
lfoot -21.609 -1.83279
ltoes -17.2901
8
root 0.343441 16.1363 -1.8605 15.514 2.98947 -1.22125
lowerback 19.7417 1.25796 -3.5253
upperback 6.44858 1.01727 0.706058
thorax -4.13795 0.484137 2.52564
lowerneck -2.18506 -8.60485 -20.3508
upperneck -13.0855 -9.61175 30.0697
head -0.396256 -5.09836 13.1582
rclavicle 1.13307e-014 -1.39149e-015
rhumerus 29.432 7.32972 -76.0026
rradius 100.61
rwrist 25.8356
rhand 30.4507 9.15992
rfingers 7.12502
rthumb 54.1117 -9.60232
lclavicle 1.13307e-014 -1.39149e-015
lhumerus 31.1106 -9.08499 73.2848
lradius 99.8324
lwrist -9.15543
lhand 22.107 38.4354
lfingers 7.12502
lthumb 46.4926 61.322
rfemur -43.896 0.941063 17.7075
rtibia 52.1817
rfoot -24.1381 -6.51055
rtoes -19.1731
lfemur -46.5718 -3.01962 -15.8993
ltibia 53.9198
lfoot -21.6693 -2.19248
ltoes -17.0172
9
root 0.355472 16.1334 -1.87551 15.425 2.87829 -1.1287
lowerback 20.1943 1.39742 -3.49373
upperback 6.38677 1.19854 0.929872
thorax -4.45526 0.577298 2.70075
lowerneck -1.93345 -8.57785 -20.3505
upperneck -13.2146 -9.58798 30.05
head -0.484256 -5.10624 13.1725
rclavicle -4.5969e-015 -6.93262e-015
rhumerus 29.2275 6.9707 -76.9058
rradius 101.105
rwrist 25.9804
rhand 30.188 9.04468
rfingers 7.12502
rthumb 53.8759 -9.8769
lclavicle -4.5969e-015 -6.93262e-015
lhumerus 31.431 -9.07692 73.0087
lradius 99.8247
lwrist -9.36523
lhand 22.5602 38.275
lfingers 7.12502
lthumb 46.9122 60.9798
rfemur -43.9265 1.08909 17.5086
rtibia 52.304
rfoot -24.0887 -6.59966
rtoes -19.4574
lfemur -46.5186 -2.75394 -16.1509
ltibia 53.9049
lfoot -21.4612 -2.27586
ltoes -16.4278
10
root 0.372223 16.1429 -1.88245 15.511 2.81868 -1.04609
lowerback 20.5067 1.49244 -3.40133
upperback 6.25567 1.34335 1.20018
thorax -4.77321 0.653728 2.89969
lowerneck -1.77325 -8.56766 -20.3939
upperneck -13.2507 -9.59792 29.88
head -0.533634 -5.11369 13.1234
rclavicle -1.2424e-015 -1.47598e-014
rhumerus 28.7736 6.72348 -77.7767
rradius 101.534
rwrist 26.1966
rhand 29.7878 8.96923
rfingers 7.12502
rthumb 53.516 -10.1908
lclavicle -1.2424e-015 -1.47598e-014
lhumerus 31.3956 -9.33767 72.8079
lradius 99.7668
lwrist -9.23895
lhand 22.5931 38.3767
lfingers 7.12502
lthumb 46.9427 61.0682
rfemur -43.9685 1.19965 17.2975
rtibia 52.1822
rfoot -23.9601 -6.6148
rtoes -19.4345
lfemur -46.5415 -2.55059 -16.3835
ltibia 53.7568
lfoot -21.289 -2.34819
ltoes -16.0593
11
root 0.390796 16.1618 -1.88509 15.7159 2.76245 -1.10573
lowerback 20.3099 1.53607 -3.02841
upperback 6.35186 1.49113 1.39019
thorax -4.57666 0.720271 2.85767
lowerneck -1.82257 -8.58156 -20.2737
upperneck -13.4258 -9.57965 29.7413
head -0.596917 -5.10557 13.053
rclavicle 1.74931e-014 6.36111e-015
rhumerus 28.3645 6.43214 -78.837
rradius 101.995
rwrist 26.2766
rhand 29.4166 8.54392
rfingers 7.12502
rthumb 53.1817 -10.8327
lclavicle 1.74931e-014 6.36111e-015
lhumerus 31.4771 -9.74556 72.3948
lradius 99.6299
lwrist -9.14661
lhand 22.3324 38.3216
lfingers 7.12502
lthumb 46.7014 61.1183
rfemur -44.0317 1.34009 17.232
rtibia 51.8389
rfoot -23.777 -6.62358
rtoes -19.5428
lfemur -46.6297 -2.33605 -16.4502
ltibia 53.479
lfoot -21.2159 -2.39795
ltoes -16.777
